<svg display="none" xmlns="http://www.w3.org/2000/svg">
  
  <symbol id="telegram" viewBox="0 0 24 24">
    <g>
      <path
      d="m.415 11.196 5.869 2.925c.227.112.495.104.712-.023l5.224-3.037-3.162
      2.802c-.161.143-.253.347-.253.562v6.825c0 .72.919 1.023 1.35.451l2.537-3.373
      6.274 3.573c.44.253 1.004-.001 1.106-.504l3.913-19.5c.117-.586-.466-1.064-1.008-.846l-22.5
      8.775c-.604.236-.643 1.081-.062 1.37zm21.83-8.249-3.439 17.137-5.945-3.386c-.324-.185-.741-.103-.971.201l-1.585
      2.107v-4.244l8.551-7.576c.677-.599-.101-1.664-.874-1.21l-11.39
      6.622-3.992-1.989z"/>
    </g>
  </symbol>

  <symbol id="instagram" viewBox="0 0 512.00096 512.00096">
    <g>
      <path d="m373.40625 0h-234.8125c-76.421875 0-138.59375 62.171875-138.59375 138.59375v234.816406c0 76.417969 62.171875 138.589844 138.59375 138.589844h234.816406c76.417969 0 138.589844-62.171875 138.589844-138.589844v-234.816406c0-76.421875-62.171875-138.59375-138.59375-138.59375zm108.578125 373.410156c0 59.867188-48.707031 108.574219-108.578125 108.574219h-234.8125c-59.871094 0-108.578125-48.707031-108.578125-108.574219v-234.816406c0-59.871094 48.707031-108.578125 108.578125-108.578125h234.816406c59.867188 0 108.574219 48.707031
      108.574219 108.578125zm0 0"/>
      <path d="m256 116.003906c-77.195312 0-139.996094 62.800782-139.996094 139.996094s62.800782 139.996094 139.996094 139.996094 139.996094-62.800782 139.996094-139.996094-62.800782-139.996094-139.996094-139.996094zm0 249.976563c-60.640625 0-109.980469-49.335938-109.980469-109.980469 0-60.640625 49.339844-109.980469 109.980469-109.980469 60.644531 0 109.980469 49.339844 109.980469 109.980469 0
      60.644531-49.335938 109.980469-109.980469
      109.980469zm0 0"/>
      <path d="m399.34375 66.285156c-22.8125 0-41.367188 18.558594-41.367188 41.367188 0 22.8125 18.554688 41.371094 41.367188 41.371094s41.371094-18.558594 41.371094-41.371094-18.558594-41.367188-41.371094-41.367188zm0 52.71875c-6.257812 0-11.351562-5.09375-11.351562-11.351562 0-6.261719 5.09375-11.351563 11.351562-11.351563 6.261719 0 11.355469 5.089844 11.355469 11.351563 0 6.257812-5.09375
      11.351562-11.355469 11.351562zm0 0"/>
    </g>
  </symbol>
</svg>
